<svg xmlns='http://www.w3.org/2000/svg' style='font-size:initial;' class="pikchr" viewBox="0 0 349.92 148.32">
<path d="M48.96,110.16L120.96,110.16A36 36 0 0 0 156.96 74.16A36 36 0 0 0 120.96 38.16L48.96,38.16A36 36 0 0 0 12.96 74.16A36 36 0 0 0 48.96 110.16Z"  style="fill:none;stroke-width:2.16;stroke:rgb(0,0,0);" />
<text x="84.96" y="74.16" text-anchor="middle" fill="rgb(0,0,0)" dominant-baseline="central">Hello</text>
<polygon points="228.96,74.16 217.44,78.48 217.44,69.84" style="fill:rgb(0,0,0)"/>
<path d="M156.96,74.16L223.2,74.16"  style="fill:none;stroke-width:2.16;stroke:rgb(0,0,0);" />
<path d="M228.96,110.16L336.96,110.16L336.96,38.16L228.96,38.16Z"  style="fill:none;stroke-width:2.16;stroke:rgb(0,0,0);" />
<text x="282.96" y="74.16" text-anchor="middle" fill="rgb(0,0,0)" dominant-baseline="central">World</text>
<path d="M2.16,146.16L347.76,146.16L347.76,2.16L2.16,2.16Z"  style="fill:none;stroke-width:1.4472;stroke:rgb(0,0,0);" />
</svg>

